<svg width="22" height="22" viewBox="0 0 22 22" fill="none" xmlns="http://www.w3.org/2000/svg">
<path d="M19.1 17.1837C18.9583 17.4837 18.775 17.767 18.5333 18.0337C18.125 18.4837 17.675 18.8087 17.1666 19.017C16.6666 19.2253 16.125 19.3337 15.5416 19.3337C14.6916 19.3337 13.7833 19.1337 12.825 18.7253C11.8666 18.317 10.9083 17.767 9.95829 17.0753C8.99996 16.3753 8.09163 15.6003 7.22496 14.742C6.36663 13.8753 5.59163 12.967 4.89996 12.017C4.21663 11.067 3.66663 10.117 3.26663 9.17533C2.86663 8.22533 2.66663 7.31699 2.66663 6.45033C2.66663 5.88366 2.76663 5.34199 2.96663 4.84199C3.16663 4.33366 3.48329 3.86699 3.92496 3.45033C4.45829 2.92533 5.04163 2.66699 5.65829 2.66699C5.89163 2.66699 6.12496 2.71699 6.33329 2.81699C6.54996 2.91699 6.74163 3.06699 6.89163 3.28366L8.82496 6.00866C8.97496 6.21699 9.08329 6.40866 9.15829 6.59199C9.23329 6.76699 9.27496 6.94199 9.27496 7.10033C9.27496 7.30033 9.21663 7.50033 9.09996 7.69199C8.99163 7.88366 8.83329 8.08366 8.63329 8.28366L7.99996 8.94199C7.90829 9.03366 7.86663 9.14199 7.86663 9.27533C7.86663 9.34199 7.87496 9.40033 7.89163 9.46699C7.91663 9.53366 7.94163 9.58366 7.95829 9.63366C8.10829 9.90866 8.36663 10.267 8.73329 10.7003C9.10829 11.1337 9.50829 11.5753 9.94163 12.017C10.3916 12.4587 10.825 12.867 11.2666 13.242C11.7 13.6087 12.0583 13.8587 12.3416 14.0087C12.3833 14.0253 12.4333 14.0503 12.4916 14.0753C12.5583 14.1003 12.625 14.1087 12.7 14.1087C12.8416 14.1087 12.95 14.0587 13.0416 13.967L13.675 13.342C13.8833 13.1337 14.0833 12.9753 14.275 12.8753C14.4666 12.7587 14.6583 12.7003 14.8666 12.7003C15.025 12.7003 15.1916 12.7337 15.375 12.8087C15.5583 12.8837 15.75 12.992 15.9583 13.1337L18.7166 15.092C18.9333 15.242 19.0833 15.417 19.175 15.6253C19.2583 15.8337 19.3083 16.042 19.3083 16.2753C19.3083 16.5753 19.2416 16.8837 19.1 17.1837Z" stroke="#191919" stroke-width="2"/>
<path d="M15.9167 8.91667C15.9167 8.41667 15.525 7.65 14.9417 7.025C14.4083 6.45 13.7 6 13 6" stroke="#191919" stroke-width="2" stroke-linecap="round" stroke-linejoin="round"/>
<path d="M20 9C20 5.13 16.87 2 13 2" stroke="#191919" stroke-width="2" stroke-linecap="round" stroke-linejoin="round"/>
<path opacity="0.01" fill-rule="evenodd" clip-rule="evenodd" d="M21 1V21H1V1H21Z" stroke="#191919" stroke-width="2"/>
</svg>
