<svg width="20" height="20" viewBox="0 0 20 20" fill="none" xmlns="http://www.w3.org/2000/svg">
<path d="M17.4333 16.1833C17.2917 16.4833 17.1083 16.7667 16.8667 17.0333C16.4583 17.4833 16.0083 17.8083 15.5 18.0167C15 18.225 14.4583 18.3333 13.875 18.3333C13.025 18.3333 12.1167 18.1333 11.1583 17.725C10.2 17.3167 9.24167 16.7667 8.29167 16.075C7.33333 15.375 6.425 14.6 5.55833 13.7417C4.7 12.875 3.925 11.9667 3.23333 11.0167C2.55 10.0667 2 9.11667 1.6 8.175C1.2 7.225 1 6.31667 1 5.45C1 4.88333 1.1 4.34167 1.3 3.84167C1.5 3.33333 1.81667 2.86667 2.25833 2.45C2.79167 1.925 3.375 1.66667 3.99167 1.66667C4.225 1.66667 4.45833 1.71667 4.66667 1.81667C4.88333 1.91667 5.075 2.06667 5.225 2.28333L7.15833 5.00833C7.30833 5.21667 7.41667 5.40833 7.49167 5.59167C7.56667 5.76667 7.60833 5.94167 7.60833 6.1C7.60833 6.3 7.55 6.5 7.43333 6.69167C7.325 6.88333 7.16667 7.08333 6.96667 7.28333L6.33333 7.94167C6.24167 8.03333 6.2 8.14167 6.2 8.275C6.2 8.34167 6.20833 8.4 6.225 8.46667C6.25 8.53333 6.275 8.58333 6.29167 8.63333C6.44167 8.90833 6.7 9.26667 7.06667 9.7C7.44167 10.1333 7.84167 10.575 8.275 11.0167C8.725 11.4583 9.15833 11.8667 9.6 12.2417C10.0333 12.6083 10.3917 12.8583 10.675 13.0083C10.7167 13.025 10.7667 13.05 10.825 13.075C10.8917 13.1 10.9583 13.1083 11.0333 13.1083C11.175 13.1083 11.2833 13.0583 11.375 12.9667L12.0083 12.3417C12.2167 12.1333 12.4167 11.975 12.6083 11.875C12.8 11.7583 12.9917 11.7 13.2 11.7C13.3583 11.7 13.525 11.7333 13.7083 11.8083C13.8917 11.8833 14.0833 11.9917 14.2917 12.1333L17.05 14.0917C17.2667 14.2417 17.4167 14.4167 17.5083 14.625C17.5917 14.8333 17.6417 15.0417 17.6417 15.275C17.6417 15.575 17.575 15.8833 17.4333 16.1833Z" stroke="#BF9C56" stroke-width="2"/>
<path d="M14.25 7.91667C14.25 7.41667 13.8584 6.65 13.275 6.025C12.7417 5.45 12.0334 5 11.3334 5" stroke="#BF9C56" stroke-width="2" stroke-linecap="round" stroke-linejoin="round"/>
<path d="M18.3334 8C18.3334 4.13 15.2034 1 11.3334 1" stroke="#BF9C56" stroke-width="2" stroke-linecap="round" stroke-linejoin="round"/>
</svg>
