<svg width="160" height="160" viewBox="0 0 160 160" fill="none" xmlns="http://www.w3.org/2000/svg">
<rect width="160" height="160" fill="#F2F2F2"/>
<g clip-path="url(#clip0_594_563)">
<path d="M140 74.1935V70.3226H136.129V33.5484H130.323V29.6774C130.323 24.3413 125.981 20 120.645 20H116.774C111.438 20 107.097 24.3413 107.097 29.6774V49.0323H95.4839V52.9032H62.5806C57.2445 52.9032 52.9032 57.2445 52.9032 62.5806V66.4516H45.1613V71.8729C43.1252 72.5445 41.1839 73.4329 39.3548 74.4974V52.9032H43.2258V41.2903H39.3548V31.6129H23.871V41.2903H20V52.9032H23.871V93.5484H21.9355V109.032H23.871V136.129H20V140H140V136.129H136.129V74.1935H140ZM23.871 45.1613H25.8065H27.7419H31.6129V41.2903H27.7419V35.4839H35.4839V45.1613H39.3548V49.0323H35.4839V77.1761C32.3426 79.7097 29.7045 82.8355 27.7419 86.3697V52.9032H31.6129V49.0323H27.7419H25.8065H23.871V45.1613ZM35.4839 126.452V136.129H27.7419V116.223C29.9948 120.293 33.1206 123.781 36.8561 126.452H35.4839ZM52.9032 136.129H39.3548V128.075C43.4135 130.429 48.0316 131.865 52.9032 132.173V136.129ZM81.9355 136.129H56.7742V132.173C67.46 131.499 76.8974 125.321 81.9355 116.223V136.129ZM83.871 105.161H76.129V109.032H80.811C77.6155 119.765 67.9884 127.495 56.7742 128.302V112.903H52.9032V128.302C41.689 127.495 32.06 119.765 28.8665 109.032H72.2581V105.161H25.8065V97.4193H33.5484V93.5484H28.8819C31.5277 84.7303 38.6542 77.6465 47.6116 75.1729L49.0323 74.7819V70.3226H60.6452V74.7819L62.0658 75.1729C71.0232 77.6465 78.1497 84.7303 80.7955 93.5484H37.4194V97.4193H83.871V105.161ZM95.4839 93.5484H91.6129V97.4193H95.4839V136.129H85.8064V109.032H87.7419V93.5484H84.8135C82.6787 85.3071 77.1394 78.2852 69.7826 74.1935H95.4839V93.5484ZM95.4839 60.6452H91.6129V64.5161H95.4839V70.3226H64.5161V66.4516H56.7742V62.5806C56.7742 59.3794 59.3794 56.7742 62.5806 56.7742H95.4839V60.6452ZM120.645 136.129H99.3548V97.4193H120.645V136.129ZM120.645 70.3226H116.774V74.1935H120.645V93.5484H99.3548V64.5161H120.645V70.3226ZM120.645 60.6452H99.3548V52.9032H120.645V60.6452ZM120.645 49.0323H110.968V29.6774C110.968 26.4761 113.573 23.871 116.774 23.871H120.645C123.846 23.871 126.452 26.4761 126.452 29.6774V33.5484H120.645V49.0323ZM132.258 136.129H124.516V74.1935H132.258V136.129ZM132.258 70.3226H124.516V37.4194H132.258V70.3226Z" fill="#BF9C56"/>
<path d="M91.6129 78.0645H87.7419V81.9354H91.6129V78.0645Z" fill="#BF9C56"/>
<path d="M83.871 78.0645H80V81.9354H83.871V78.0645Z" fill="#BF9C56"/>
<path d="M116.774 101.291H112.903V105.161H116.774V101.291Z" fill="#BF9C56"/>
<path d="M109.032 101.291H105.161V105.161H109.032V101.291Z" fill="#BF9C56"/>
<path d="M56.7742 74.1934H52.9032V78.0643H56.7742V74.1934Z" fill="#BF9C56"/>
</g>
<defs>
<clipPath id="clip0_594_563">
<rect width="120" height="120" fill="white" transform="translate(20 20)"/>
</clipPath>
</defs>
</svg>
