<svg width="160" height="160" viewBox="0 0 160 160" fill="none" xmlns="http://www.w3.org/2000/svg">
<rect width="160" height="160" fill="#F2F2F2"/>
<g clip-path="url(#clip0_594_539)">
<path d="M140 39.3548V35.4839H136.129V20H35.4839V35.4839H31.6129V39.3548H35.4839V50.9677H23.871V66.4516H20V70.3226H23.871V136.129H20V140H140V136.129H136.129V39.3548H140ZM97.4193 23.871H112.903V27.7419H97.4193V23.871ZM97.4193 31.6129H112.903V35.4839H97.4193V31.6129ZM78.0645 23.871H93.5484V27.7419H78.0645V23.871ZM78.0645 31.6129H93.5484V35.4839H78.0645V31.6129ZM58.7097 23.871H74.1935V27.7419H58.7097V23.871ZM58.7097 31.6129H74.1935V35.4839H58.7097V31.6129ZM39.3548 23.871H54.8387V27.7419H39.3548V23.871ZM39.3548 31.6129H54.8387V35.4839H39.3548V31.6129ZM27.7419 54.8387H39.3548V58.7097H27.7419V54.8387ZM27.7419 62.5806H39.3548V66.4516H27.7419V62.5806ZM72.2581 89.6774H68.3871V93.5484H72.2581V112.903H68.3871V116.774H72.2581V136.129H27.7419V116.774H64.5161V112.903H27.7419V93.5484H64.5161V89.6774H27.7419V70.3226H72.2581V89.6774ZM56.7742 62.5806V66.4516H43.2258V62.5806H56.7742ZM43.2258 58.7097V54.8387H56.7742V58.7097H43.2258ZM72.2581 66.4516H60.6452V62.5806H72.2581V66.4516ZM72.2581 58.7097H60.6452V54.8387H72.2581V58.7097ZM109.032 136.129H76.129V100.625L109.032 117.941V136.129ZM76.129 96.2523V85.1426L83.871 89.2168V100.326L76.129 96.2523ZM87.7419 102.363V91.2529L97.4193 96.3471V107.457L87.7419 102.363ZM109.032 113.569L101.29 109.495V98.3852L109.032 102.459V113.569ZM124.516 136.129H112.903V132.258H124.516V136.129ZM124.516 128.387H112.903V124.516H124.516V128.387ZM124.516 120.645H112.903V116.774H124.516V120.645ZM132.258 136.129H128.387V101.29H124.516V112.903H112.903V100.121L76.129 80.7664V70.3226H80V66.4516H76.129V50.9677H39.3548V39.3548H132.258V136.129ZM132.258 35.4839H116.774V31.6129H132.258V35.4839ZM132.258 27.7419H116.774V23.871H132.258V27.7419Z" fill="#BF9C56"/>
<path d="M128.387 43.2256H124.516V47.0966H128.387V43.2256Z" fill="#BF9C56"/>
<path d="M120.645 43.2256H116.774V47.0966H120.645V43.2256Z" fill="#BF9C56"/>
<path d="M128.387 50.9678H124.516V54.8387H128.387V50.9678Z" fill="#BF9C56"/>
<path d="M68.3871 74.1934H64.5161V78.0643H68.3871V74.1934Z" fill="#BF9C56"/>
<path d="M60.6451 74.1934H56.7742V78.0643H60.6451V74.1934Z" fill="#BF9C56"/>
<path d="M68.3871 81.9355H64.5161V85.8065H68.3871V81.9355Z" fill="#BF9C56"/>
</g>
<defs>
<clipPath id="clip0_594_539">
<rect width="120" height="120" fill="white" transform="translate(20 20)"/>
</clipPath>
</defs>
</svg>
