<svg width="160" height="160" viewBox="0 0 160 160" fill="none" xmlns="http://www.w3.org/2000/svg">
<rect width="160" height="160" fill="#F2F2F2"/>
<g clip-path="url(#clip0_594_527)">
<path d="M140 136.129H136.129V140H140V136.129Z" fill="#BF9C56"/>
<path d="M122.581 50.9677H130.636L138.065 48.4923V20H87.7419V48.4923L95.1703 50.9677H103.226V54.8387H61.8916C65.8477 51.6432 68.3871 46.76 68.3871 41.2903V39.3548V35.4839C68.3871 28.5006 63.0742 22.7348 56.2787 22.0148C55.6187 20.8206 54.3626 20 52.9032 20H49.0323C47.5729 20 46.3168 20.8206 45.6568 22.0148C38.8613 22.7348 33.5484 28.5006 33.5484 35.4839V39.3548V41.2903C33.5484 46.76 36.0877 51.6432 40.0439 54.8387H37.4194C27.8155 54.8387 20 62.6523 20 72.2581V91.6129C20 98.0174 25.2084 103.226 31.6129 103.226V136.129H20V140H31.6129H70.3226H103.226H122.581H132.258V136.129H122.581V50.9677ZM56.7742 26.0019C61.1852 26.9 64.5161 30.8097 64.5161 35.4839H56.7742V26.0019ZM49.0323 23.871H52.9032V35.4839H49.0323V23.871ZM49.0323 39.3548H52.9032H56.7742H60.7265C58.5355 40.3884 55.371 41.2903 50.9677 41.2903C46.5045 41.2903 43.3265 40.3903 41.1452 39.3548H45.1613H49.0323ZM45.1613 26.0019V35.4839H37.4194C37.4194 30.8097 40.7503 26.9 45.1613 26.0019ZM37.4387 41.689C40.1039 43.4019 44.42 45.1613 50.9677 45.1613C57.5155 45.1613 61.8316 43.4019 64.4968 41.689C64.2819 48.9742 58.3032 54.8387 50.9677 54.8387C43.6323 54.8387 37.6535 48.9742 37.4387 41.689ZM53.84 58.7097L50.9677 65.4084L48.0955 58.7097H53.84ZM39.3548 66.4516V58.7097H43.8858L49.0323 70.7194V80H35.4839V71.9019C37.731 71.1006 39.3548 68.9716 39.3548 66.4516ZM35.4839 95.4839V91.6129H49.0323V95.4839H35.4839ZM39.3548 99.3548V101.29C39.3548 103.425 37.6187 105.161 35.4839 105.161V99.3548H39.3548ZM35.4839 87.7419V83.871H49.0323V87.7419H35.4839ZM31.6129 99.3548C28.76 99.3548 26.2903 97.7871 24.9471 95.4839H31.6129V99.3548ZM33.5484 68.3871H31.6129V91.6129H23.871V72.2581C23.871 65.4471 28.9284 59.809 35.4839 58.8645V66.4516C35.4839 67.52 34.6148 68.3871 33.5484 68.3871ZM49.0323 136.129H35.4839V132.258H49.0323V136.129ZM66.4516 136.129H52.9032V132.258H66.4516V136.129ZM66.4516 128.387H52.9032V107.097H49.0323V128.387H35.4839V109.032C39.7535 109.032 43.2258 105.56 43.2258 101.29V99.3548H58.7097V101.29C58.7097 105.56 62.1819 109.032 66.4516 109.032V128.387ZM66.4516 105.161C64.3168 105.161 62.5806 103.425 62.5806 101.29V99.3548H66.4516V105.161ZM66.4516 95.4839H52.9032V91.6129H66.4516V95.4839ZM66.4516 87.7419H52.9032V83.871H66.4516V87.7419ZM66.4516 80H52.9032V70.7194L58.0497 58.7097H62.5806V66.4516C62.5806 68.9716 64.2045 71.1006 66.4516 71.9019V80ZM68.3871 68.3871C67.3206 68.3871 66.4516 67.52 66.4516 66.4516V58.7097H93.5484V68.3871H68.3871ZM103.226 136.129H70.3226V72.2581H103.226V136.129ZM103.226 68.3871H97.4193V58.7097H103.226V68.3871ZM118.71 55.5781L112.038 58.9148L113.77 62.3774L118.71 59.9058V78.8039L112.038 82.1406L113.77 85.6032L118.71 83.1316V102.03L112.038 105.366L113.77 108.829L118.71 106.357V125.255L112.038 128.592L113.77 132.055L118.71 129.583V136.129H107.097V121.841L113.768 118.505L112.036 115.042L107.097 117.514V98.6155L113.768 95.2787L112.036 91.8161L107.097 94.2877V75.3897L113.768 72.0529L112.036 68.5903L107.097 71.0619V50.9677H118.71V55.5781ZM118.71 39.3548V47.0968H114.839V39.3548H110.968V47.0968H107.097V39.3548H103.226V47.0968H99.3548V39.3548H95.4839V46.9923L91.6129 45.7013V31.6129H126.452V27.7419H91.6129V23.871H134.194V27.7419H130.323V31.6129H134.194V45.7013L130.323 46.9923V39.3548H126.452V47.0968H122.581V39.3548H118.71Z" fill="#BF9C56"/>
<path d="M89.6775 126.452V130.323H90.0085C93.022 130.323 95.8556 131.496 97.9865 133.627L100.723 130.89C97.8607 128.027 94.0556 126.452 90.0085 126.452H89.6775Z" fill="#BF9C56"/>
<path d="M95.1587 120.744L95.809 121.719L99.0297 119.573L98.3794 118.598C96.0045 115.032 92.0271 112.903 87.7419 112.903V116.774C90.7284 116.774 93.5019 118.259 95.1587 120.744Z" fill="#BF9C56"/>
<path d="M136.129 126.452H135.798C131.751 126.452 127.946 128.027 125.083 130.89L127.82 133.627C129.951 131.496 132.785 130.323 135.798 130.323H136.129V126.452Z" fill="#BF9C56"/>
<path d="M127.427 118.596L126.777 119.571L129.998 121.718L130.648 120.742C132.305 118.259 135.078 116.774 138.065 116.774V112.903C133.779 112.903 129.802 115.032 127.427 118.596Z" fill="#BF9C56"/>
</g>
<defs>
<clipPath id="clip0_594_527">
<rect width="120" height="120" fill="white" transform="translate(20 20)"/>
</clipPath>
</defs>
</svg>
