<svg width="160" height="160" viewBox="0 0 160 160" fill="none" xmlns="http://www.w3.org/2000/svg">
<rect width="160" height="160" fill="#F2F2F2"/>
<g clip-path="url(#clip0_594_513)">
<path d="M128.387 105.38L118.539 121.137C117.384 122.983 116.774 125.112 116.774 127.291V128.387C116.774 134.791 121.983 140 128.387 140C134.792 140 140 134.791 140 128.387V127.291C140 125.112 139.39 122.983 138.235 121.137L128.387 105.38ZM136.129 128.387C136.129 132.657 132.657 136.129 128.387 136.129C124.117 136.129 120.645 132.657 120.645 128.387V127.291C120.645 125.838 121.052 124.419 121.822 123.188L128.387 112.684L134.952 123.19C135.723 124.419 136.129 125.838 136.129 127.291V128.387Z" fill="#BF9C56"/>
<path d="M97.4193 105.38L87.5716 121.137C86.4161 122.983 85.8064 125.112 85.8064 127.291V128.387C85.8064 134.791 91.0148 140 97.4193 140C103.824 140 109.032 134.791 109.032 128.387V127.291C109.032 125.112 108.423 122.983 107.267 121.137L97.4193 105.38ZM105.161 128.387C105.161 132.657 101.689 136.129 97.4193 136.129C93.1496 136.129 89.6774 132.657 89.6774 128.387V127.291C89.6774 125.838 90.0838 124.419 90.8541 123.188L97.4193 112.684L103.984 123.19C104.755 124.419 105.161 125.838 105.161 127.291V128.387Z" fill="#BF9C56"/>
<path d="M62.5807 105.38L52.7329 121.137C51.5775 122.983 50.9678 125.112 50.9678 127.291V128.387C50.9678 134.791 56.1762 140 62.5807 140C68.9852 140 74.1936 134.791 74.1936 128.387V127.291C74.1936 125.112 73.5839 122.983 72.4284 121.137L62.5807 105.38ZM70.3226 128.387C70.3226 132.657 66.8504 136.129 62.5807 136.129C58.311 136.129 54.8387 132.657 54.8387 128.387V127.291C54.8387 125.838 55.2452 124.419 56.0155 123.188L62.5807 112.684L69.1458 123.19C69.9162 124.419 70.3226 125.838 70.3226 127.291V128.387Z" fill="#BF9C56"/>
<path d="M31.6129 105.38L21.7652 121.137C20.6097 122.983 20 125.112 20 127.291V128.387C20 134.791 25.2084 140 31.6129 140C38.0174 140 43.2258 134.791 43.2258 128.387V127.291C43.2258 125.112 42.6161 122.983 41.4606 121.137L31.6129 105.38ZM39.3548 128.387C39.3548 132.657 35.8826 136.129 31.6129 136.129C27.3432 136.129 23.871 132.657 23.871 128.387V127.291C23.871 125.838 24.2774 124.419 25.0477 123.188L31.6129 112.684L38.1781 123.19C38.9484 124.419 39.3548 125.838 39.3548 127.291V128.387Z" fill="#BF9C56"/>
<path d="M132.258 97.4193H81.9355V92.9232L90.051 89.6774H101.29C108.761 89.6774 114.839 83.6 114.839 76.129V74.1935H101.29C94.2703 74.1935 88.4832 79.5587 87.8097 86.4045L81.9355 88.7542V62.3058C84.169 61.7252 86.0058 60.1826 86.9774 58.1348C87.8194 58.4348 88.6961 58.609 89.5806 58.609C91.5626 58.609 93.5464 57.8542 95.0561 56.3465C97.2374 54.1632 97.8181 50.9987 96.8464 48.2697C99.4632 47.0252 101.29 44.3755 101.29 41.2903C101.29 38.2052 99.4632 35.5555 96.8445 34.3129C97.8161 31.5839 97.2355 28.4174 95.0542 26.2361C92.8729 24.0548 89.7065 23.4742 86.9774 24.4458C85.7348 21.8271 83.0852 20 80 20C76.9148 20 74.2652 21.8271 73.0226 24.4458C70.2916 23.4723 67.1271 24.0529 64.9458 26.2361C62.7645 28.4194 62.1839 31.5839 63.1555 34.3129C60.5368 35.5555 58.7097 38.2052 58.7097 41.2903C58.7097 44.3755 60.5368 47.0252 63.1555 48.2677C62.1839 50.9968 62.7645 54.1632 64.9458 56.3445C66.4555 57.8542 68.4374 58.6071 70.4213 58.6071C71.3058 58.6071 72.1826 58.4329 73.0245 58.1329C73.9961 60.1806 75.8329 61.7232 78.0664 62.3039V75.2039L72.1923 72.8542C71.5168 66.0103 65.7297 60.6452 58.7097 60.6452H45.1613V62.5806C45.1613 70.0516 51.2387 76.129 58.7097 76.129H69.949L78.0645 79.3748V97.4193H20V101.29H78.0645V114.839H81.9355V101.29H132.258V97.4193ZM101.29 78.0645H110.772C109.874 82.4755 105.963 85.8064 101.29 85.8064H91.8084C92.7065 81.3955 96.6161 78.0645 101.29 78.0645ZM92.3174 53.6077C91.0787 54.8465 89.209 55.0497 87.7419 54.2561V49.0323H92.9658C93.7613 50.4994 93.5561 52.369 92.3174 53.6077ZM87.7419 28.3245C89.209 27.529 91.0787 27.7342 92.3174 28.9729C93.5561 30.2116 93.7613 32.0813 92.9658 33.5484H87.7419V28.3245ZM86.6658 37.4194H93.5484C95.6832 37.4194 97.4193 39.1555 97.4193 41.2903C97.4193 43.4252 95.6832 45.1613 93.5484 45.1613H86.6658C87.3316 44.0174 87.7419 42.7071 87.7419 41.2903C87.7419 39.8735 87.3316 38.5632 86.6658 37.4194ZM67.6826 28.9729C68.9213 27.7342 70.791 27.531 72.2581 28.3245V33.5484H67.0342C66.2387 32.0813 66.4439 30.2116 67.6826 28.9729ZM72.2581 54.2561C70.791 55.0497 68.9213 54.8465 67.6826 53.6077C66.4439 52.369 66.2387 50.4994 67.0342 49.0323H72.2581V54.2561ZM73.3342 45.1613H66.4516C64.3168 45.1613 62.5806 43.4252 62.5806 41.2903C62.5806 39.1555 64.3168 37.4194 66.4516 37.4194H73.3342C72.6684 38.5632 72.2581 39.8735 72.2581 41.2903C72.2581 42.7071 72.6684 44.0174 73.3342 45.1613ZM58.7097 72.2581C54.0355 72.2581 50.1258 68.9271 49.2277 64.5161H58.7097C63.3839 64.5161 67.2935 67.8471 68.1916 72.2581H58.7097ZM76.129 27.7419C76.129 25.6071 77.8652 23.871 80 23.871C82.1348 23.871 83.871 25.6071 83.871 27.7419V34.6245C82.7271 33.9587 81.4168 33.5484 80 33.5484C78.5832 33.5484 77.2729 33.9587 76.129 34.6245V27.7419ZM80 37.4194C82.1348 37.4194 83.871 39.1555 83.871 41.2903C83.871 43.4252 82.1348 45.1613 80 45.1613C77.8652 45.1613 76.129 43.4252 76.129 41.2903C76.129 39.1555 77.8652 37.4194 80 37.4194ZM80 58.7097C77.8652 58.7097 76.129 56.9735 76.129 54.8387V47.9561C77.2729 48.6219 78.5832 49.0323 80 49.0323C81.4168 49.0323 82.7271 48.6219 83.871 47.9561V54.8387C83.871 56.9735 82.1348 58.7097 80 58.7097Z" fill="#BF9C56"/>
<path d="M140 97.4194H136.129V101.29H140V97.4194Z" fill="#BF9C56"/>
<path d="M49.0322 109.032H45.1613V112.903H49.0322V109.032Z" fill="#BF9C56"/>
<path d="M114.839 109.032H110.968V112.903H114.839V109.032Z" fill="#BF9C56"/>
</g>
<defs>
<clipPath id="clip0_594_513">
<rect width="120" height="120" fill="white" transform="translate(20 20)"/>
</clipPath>
</defs>
</svg>
