<svg width="160" height="160" viewBox="0 0 160 160" fill="none" xmlns="http://www.w3.org/2000/svg">
<rect width="160" height="160" fill="#F2F2F2"/>
<g clip-path="url(#clip0_594_627)">
<path d="M65 115H61V119H65V115Z" fill="#BF9C56"/>
<path d="M70 121H66V125H70V121Z" fill="#BF9C56"/>
<path d="M75 127H71V131H75V127Z" fill="#BF9C56"/>
<path d="M32 88H28V92H32V88Z" fill="#BF9C56"/>
<path d="M37 94H33V98H37V94Z" fill="#BF9C56"/>
<path d="M42 100H38V104H42V100Z" fill="#BF9C56"/>
<path d="M135.622 68.9094L112.903 34L90.1845 68.9094C89.2961 70.2741 88.5471 71.7239 87.92 73.2336L80 61.063L72.08 73.2317C71.4529 71.722 70.7039 70.2741 69.8155 68.9074L47.0968 34L24.3781 68.9094C21.5135 73.311 20 78.4104 20 83.6587V85.874C20 100.797 32.1548 112.937 47.0968 112.937C49.0497 112.937 50.9929 112.709 52.9032 112.287V112.937C52.9032 127.86 65.0581 140 80 140C94.9419 140 107.097 127.86 107.097 112.937V112.287C109.007 112.709 110.95 112.937 112.903 112.937C127.845 112.937 140 100.797 140 85.874V83.6587C140 78.4104 138.486 73.311 135.622 68.9094ZM47.0968 109.071C34.2897 109.071 23.871 98.6651 23.871 85.874V83.6587C23.871 79.1604 25.1677 74.7897 27.6219 71.0164L47.0968 41.0944L66.5716 71.0164C67.8297 72.9495 68.7703 75.0778 69.409 77.3375L57.2813 95.9724C54.8639 99.6877 53.4219 103.902 53.0271 108.28C51.0839 108.794 49.0961 109.071 47.0968 109.071ZM103.226 112.937C103.226 125.728 92.8071 136.134 80 136.134C67.1929 136.134 56.7742 125.728 56.7742 112.937V110.722C56.7742 106.223 58.071 101.853 60.5252 98.0794L80 68.1574L99.4748 98.0794C101.929 101.853 103.226 106.221 103.226 110.722V112.937ZM136.129 85.874C136.129 98.6651 125.71 109.071 112.903 109.071C110.904 109.071 108.916 108.794 106.975 108.28C106.58 103.902 105.136 99.6877 102.721 95.9724L90.5929 77.3375C91.2316 75.0778 92.1723 72.9495 93.4303 71.0164L112.903 41.0944L132.378 71.0164C134.832 74.7897 136.129 79.1585 136.129 83.6587V85.874Z" fill="#BF9C56"/>
<path d="M41 24H37V34H41V24Z" fill="#BF9C56"/>
<path d="M26 30H22V54H26V30Z" fill="#BF9C56"/>
<path d="M26 58H22V62H26V58Z" fill="#BF9C56"/>
<path d="M57 20H53V30H57V20Z" fill="#BF9C56"/>
<path d="M57 34H53V38H57V34Z" fill="#BF9C56"/>
<path d="M73 30H69V55H73V30Z" fill="#BF9C56"/>
<path d="M73 59H69V63H73V59Z" fill="#BF9C56"/>
<path d="M123 24H119V34H123V24Z" fill="#BF9C56"/>
<path d="M138 20H134V50H138V20Z" fill="#BF9C56"/>
<path d="M138 54H134V58H138V54Z" fill="#BF9C56"/>
<path d="M107 20H103V34H107V20Z" fill="#BF9C56"/>
<path d="M92 28H88V48H92V28Z" fill="#BF9C56"/>
<path d="M92 52H88V56H92V52Z" fill="#BF9C56"/>
</g>
<defs>
<clipPath id="clip0_594_627">
<rect width="120" height="120" fill="white" transform="translate(20 20)"/>
</clipPath>
</defs>
</svg>
