<svg width="22" height="22" viewBox="0 0 22 22" fill="none" xmlns="http://www.w3.org/2000/svg">
<path opacity="0.01" fill-rule="evenodd" clip-rule="evenodd" d="M21 1V21H1V1H21Z" stroke="#191919" stroke-width="2"/>
<path fill-rule="evenodd" clip-rule="evenodd" d="M11 12C9.34315 12 8 10.6569 8 9C8 7.34315 9.34315 6 11 6C12.6569 6 14 7.34315 14 9C14 10.6569 12.6569 12 11 12Z" stroke="#191919" stroke-width="2"/>
<path d="M18.7748 7.50163C19.8418 12.5829 16.91 16.884 14.34 19.5446C12.4752 21.4851 9.52485 21.4851 7.65073 19.5446C5.09006 16.884 2.15828 12.5729 3.22522 7.49162C5.05295 -1.17054 16.9564 -1.16054 18.7748 7.50163Z" stroke="#191919" stroke-width="2"/>
</svg>
