<svg width="123" height="33" viewBox="0 0 123 33" fill="none" xmlns="http://www.w3.org/2000/svg">
<path fill-rule="evenodd" clip-rule="evenodd" d="M3 23.9998L7.5 29.9996C9.81075 33.0804 13.3194 33.0006 16.5 32.9997C32.5732 32.9953 48.427 32.9997 64.5001 32.9997C67.6806 32.9997 68.9523 31.7578 70.5003 29.9996L75.0003 23.9996L46.5001 23.9998C43.32 23.9998 40.656 25.3439 39.0001 26.9997L36.0003 29.9996L33.0001 26.9997C31.3425 25.3421 28.6794 23.9986 25.5001 23.9996L3 23.9998Z" fill="#BF9C56"/>
<path fill-rule="evenodd" clip-rule="evenodd" d="M73.5004 3.00011L70.5004 5.99992C69.1487 7.3517 67.6807 9.00003 64.5002 9.00003H36.0002L40.5002 3.00011C41.9068 1.12469 43.3201 -0.000899448 46.5002 5.39298e-07L82.5004 0.0123004C84.0004 0.0127504 87.8804 0.455994 90.0004 3.00011L97.5004 12L105 3.00011C107.246 0.569093 109.5 5.39298e-07 112.5 5.39298e-07H123L114 11.9998C112.719 13.708 109.5 14.9878 105 14.9929C99.0005 14.9996 96.0001 14.9995 90.0272 14.9926C85.5007 14.9873 82.3136 13.5757 81.0004 11.9998L73.5004 3.00011Z" fill="#BF9C56"/>
<path fill-rule="evenodd" clip-rule="evenodd" d="M3.00017 23.9998C6.00002 23.9998 10.0743 23.6956 12 20.9999L27.0002 0H18.0002C15.4098 0 10.6388 0.0988487 7.50017 4.49994L0.462618 14.3692C0.174169 15.0023 -0.00208144 15.6997 1.85585e-05 16.4998C0.00496856 18.2492 0.587868 20.8694 3.00017 23.9998Z" fill="#BF9C56"/>
<path fill-rule="evenodd" clip-rule="evenodd" d="M36.0002 20.9998L40.5002 14.9996C41.8424 13.21 43.5145 11.9996 46.5505 11.9996H75.0004L70.5004 18.0009C69.1582 19.7907 67.5361 20.9998 64.5004 20.9998C53.255 20.9998 47.2456 21.01 36.0002 20.9998Z" fill="#BF9C56"/>
<path fill-rule="evenodd" clip-rule="evenodd" d="M108 17.9997C110.582 17.9997 113.559 19.7825 115.5 22.4997L123 32.9995H112.5C109.917 32.9995 107.138 32.5654 105 29.9996L97.4999 20.9997L89.9999 29.9996C87.8618 32.5654 85.0831 32.9995 82.5001 32.9995H72.0002L79.5001 22.4997C81.4409 19.7825 84.4178 17.9997 87.0001 17.9997H97.4999H108Z" fill="#BF9C56"/>
</svg>
