<svg width="80" height="80" viewBox="0 0 80 80" fill="none" xmlns="http://www.w3.org/2000/svg">
<g clip-path="url(#clip0_225_138)">
<path d="M51.6006 6.73688L21.7502 6.73688C19.9737 2.77031 15.9884 -6.98877e-07 11.3684 -4.9693e-07C5.09984 -2.22921e-07 -3.27399e-06 5.09985 -2.99998e-06 11.3684C-2.79803e-06 15.9884 2.77031 19.9738 6.73687 21.7503L6.73687 36.9934C2.55469 41.5638 -1.4142e-06 47.6469 -1.12269e-06 54.3158C-5.03637e-07 68.4781 11.5219 80 25.6842 80C34.5288 80 42.6416 75.5359 47.3861 68.0587C47.7597 67.47 47.5855 66.6894 46.9964 66.3153C46.4073 65.9416 45.6269 66.1161 45.253 66.705C40.9744 73.4481 33.6591 77.4736 25.6842 77.4736C12.915 77.4736 2.52625 67.0848 2.52625 54.3156C2.52625 41.5464 12.915 31.1577 25.6842 31.1577C38.4534 31.1577 48.8422 41.5464 48.8422 54.3156C48.8422 57.3562 48.2623 60.3117 47.1188 63.0997C46.8534 63.745 47.1625 64.4831 47.808 64.7477C48.4536 65.0123 49.1914 64.7039 49.4559 64.0584C50.7252 60.9647 51.3686 57.6867 51.3686 54.3156C51.3686 47.6883 48.845 41.6384 44.7087 37.0775L54.3395 27.4467C57.0587 29.7603 60.5795 31.1577 64.4212 31.1577C73.0116 31.1577 80.0002 24.1691 80.0001 15.5787C80.0001 6.98844 73.0114 -3.19143e-06 64.4211 -2.81594e-06C59.1119 -2.58386e-06 54.4145 2.66968 51.6006 6.73688ZM2.52625 11.3684C2.52625 6.49297 6.49297 2.52641 11.3683 2.5264C16.2437 2.5264 20.2103 6.49313 20.2103 11.3684C20.2103 16.2439 16.2436 20.2105 11.3683 20.2105C6.49297 20.2105 2.52625 16.2439 2.52625 11.3684ZM42.9223 35.2914C38.3616 31.1552 32.3117 28.6316 25.6842 28.6316C19.4448 28.6316 13.7181 30.8678 9.26312 34.5811L9.26312 22.5416C9.94578 22.6698 10.6491 22.7369 11.3684 22.7369C17.637 22.7369 22.7369 17.637 22.7369 11.3684C22.7369 10.6491 22.6698 9.94578 22.5416 9.26312L50.1803 9.26312C49.3202 11.1947 48.8422 13.3317 48.8422 15.5789C48.8422 19.4206 50.2395 22.9414 52.553 25.6606L42.9223 35.2914ZM77.4737 15.5789C77.4737 22.7761 71.6183 28.6316 64.4211 28.6316C57.2239 28.6316 51.3684 22.7761 51.3684 15.5789C51.3684 8.38171 57.2239 2.52625 64.4211 2.52625C71.6181 2.52625 77.4737 8.38187 77.4737 15.5789Z" fill="#CCA352"/>
<path d="M15.9999 11.3684C15.9999 8.81469 13.9221 6.73688 11.3684 6.73688C8.81463 6.73688 6.73682 8.81469 6.73682 11.3684C6.73682 13.9222 8.81463 16 11.3684 16C13.9221 16 15.9999 13.9222 15.9999 11.3684ZM9.26307 11.3684C9.26307 10.2075 10.2074 9.26313 11.3684 9.26313C12.5293 9.26313 13.4737 10.2075 13.4737 11.3684C13.4737 12.5294 12.5293 13.4737 11.3684 13.4737C10.2074 13.4737 9.26307 12.5294 9.26307 11.3684Z" fill="#CCA352"/>
<path d="M7.81541 47.9997C7.09963 50.0247 6.73682 52.1496 6.73682 54.3158C6.73682 64.7633 15.2367 73.2632 25.6842 73.2632C36.1317 73.2632 44.6315 64.7633 44.6315 54.3158C44.6315 43.8683 36.1317 35.3685 25.6842 35.3685C19.6865 35.3685 14.1715 38.1171 10.5534 42.9097C10.1335 43.4666 10.244 44.2587 10.8006 44.679C11.3574 45.0991 12.1495 44.9885 12.5698 44.4318C15.7059 40.2776 20.4859 37.8949 25.684 37.8949C34.7387 37.8949 42.1051 45.2613 42.1051 54.316C42.1051 63.3707 34.7388 70.7369 25.6842 70.7369C16.6295 70.7369 9.26307 63.3705 9.26307 54.3158C9.26307 52.4371 9.57728 50.5954 10.1973 48.8418C10.4293 48.1833 10.0849 47.4622 9.42744 47.2297C8.76963 46.9972 8.04791 47.3421 7.81541 47.9997Z" fill="#CCA352"/>
<path d="M4.21058 36.6316L4.21058 28.2105C4.21058 27.5127 3.64526 26.9474 2.94745 26.9474C2.24964 26.9474 1.68433 27.5128 1.68433 28.2105L1.68433 36.6316C1.68433 37.3294 2.24964 37.8947 2.94745 37.8947C3.64526 37.8947 4.21058 37.3294 4.21058 36.6316Z" fill="#CCA352"/>
<path d="M44.6316 13.0527C44.6316 12.3549 44.0663 11.7895 43.3685 11.7895L29.8947 11.7895C29.1969 11.7895 28.6316 12.3549 28.6316 13.0527C28.6316 13.7505 29.1969 14.3158 29.8947 14.3158L43.3685 14.3158C44.0663 14.3158 44.6316 13.7505 44.6316 13.0527Z" fill="#CCA352"/>
<path d="M55.5789 15.579C55.5789 20.4545 59.5456 24.4211 64.4209 24.4211C69.2962 24.4211 73.2629 20.4544 73.2629 15.579C73.2629 10.7037 69.2962 6.73702 64.4209 6.73702C59.5456 6.73702 55.5789 10.7036 55.5789 15.579ZM70.7368 15.579C70.7368 18.629 68.5635 21.1811 65.6842 21.768L65.6842 9.39014C68.5635 9.97701 70.7368 12.5292 70.7368 15.579ZM63.1579 21.7681C60.2785 21.1812 58.1053 18.629 58.1053 15.5792C58.1053 12.5292 60.2785 9.97717 63.1579 9.39046L63.1579 21.7681Z" fill="#CCA352"/>
<path d="M18.5264 54.3158C18.5264 58.2627 21.7373 61.4738 25.6843 61.4738C29.6312 61.4738 32.8421 58.2628 32.8421 54.3158C32.8421 50.3689 29.6312 47.158 25.6843 47.158C21.7373 47.158 18.5264 50.3689 18.5264 54.3158ZM30.3159 54.3158C30.3159 56.8695 28.2381 58.9473 25.6843 58.9473C23.1306 58.9473 21.0528 56.8695 21.0528 54.3158C21.0528 51.762 23.1306 49.6842 25.6843 49.6842C28.2381 49.6842 30.3159 51.762 30.3159 54.3158Z" fill="#CCA352"/>
<path d="M13.0527 53.0526C12.3549 53.0526 11.7896 53.6181 11.7896 54.3158C11.7896 61.9772 18.0228 68.2104 25.6842 68.2104C26.382 68.2104 26.9474 67.645 26.9474 66.9473C26.9474 66.2497 26.382 65.6842 25.6842 65.6842C19.4156 65.6842 14.3158 60.5844 14.3158 54.3158C14.3158 53.618 13.7505 53.0526 13.0527 53.0526Z" fill="#CCA352"/>
<path d="M38.3158 55.5789C39.0136 55.5789 39.579 55.0135 39.579 54.3157C39.579 46.6543 33.3457 40.421 25.6843 40.421C24.9865 40.421 24.4211 40.9864 24.4211 41.6842C24.4211 42.382 24.9865 42.9473 25.6843 42.9473C31.9529 42.9473 37.0527 48.0471 37.0527 54.3157C37.0527 55.0135 37.618 55.5789 38.3158 55.5789Z" fill="#CCA352"/>
</g>
<defs>
<clipPath id="clip0_225_138">
<rect width="80" height="80" fill="white" transform="translate(0 80) rotate(-90)"/>
</clipPath>
</defs>
</svg>
