<svg width="80" height="80" viewBox="0 0 80 80" fill="none" xmlns="http://www.w3.org/2000/svg">
<g clip-path="url(#clip0_225_157)">
<path d="M73.3333 64.1141V40V15.8859C77.1042 15.2461 80 11.9458 80 8C80 3.6 76.4 0 72 0C67.6 0 64 3.6 64 8C64 11.9458 66.8958 15.2461 70.6667 15.8859V38.6667H52V15.8859C55.7709 15.2461 58.6667 11.9458 58.6667 8C58.6667 3.6 55.0667 0 50.6667 0C46.2667 0 42.6667 3.6 42.6667 8C42.6667 11.9458 45.5625 15.2461 49.3334 15.8859V38.6667H30.6667V15.8859C34.4377 15.2461 37.3334 11.9458 37.3334 8C37.3334 3.6 33.7334 0 29.3334 0C24.9334 0 21.3334 3.6 21.3334 8C21.3334 11.9458 24.2292 15.2461 28.0002 15.8859V38.6667H9.33328V15.8859C13.1042 15.2461 16 11.9458 16 8C16 3.6 12.4 0 8 0C3.6 0 0 3.6 0 8C0 11.9458 2.89578 15.2461 6.66672 15.8859V40C6.66672 40.8 7.2 41.3333 8 41.3333H28V64.1141C24.2291 64.7539 21.3333 68.0542 21.3333 72C21.3333 76.4 24.9333 80 29.3333 80C33.7333 80 37.3333 76.4 37.3333 72C37.3333 68.0542 34.4375 64.7539 30.6666 64.1141V41.3333H49.3333V64.1141C45.5623 64.7539 42.6666 68.0542 42.6666 72C42.6666 76.4 46.2666 80 50.6666 80C55.0666 80 58.6666 76.4 58.6666 72C58.6666 68.0542 55.7708 64.7539 51.9998 64.1141V41.3333H70.6666V64.1141C66.8956 64.7539 63.9998 68.0542 63.9998 72C63.9998 76.4 67.5998 80 71.9998 80C76.3998 80 79.9998 76.4 79.9998 72C80 68.0542 77.1042 64.7539 73.3333 64.1141ZM66.6667 8C66.6667 5.06672 69.0667 2.66672 72 2.66672C74.9333 2.66672 77.3333 5.06672 77.3333 8C77.3333 10.9333 74.9333 13.3333 72 13.3333C69.0667 13.3333 66.6667 10.9333 66.6667 8ZM45.3333 8C45.3333 5.06672 47.7333 2.66672 50.6666 2.66672C53.5998 2.66672 55.9998 5.06672 55.9998 8C55.9998 10.9333 53.5998 13.3333 50.6666 13.3333C47.7333 13.3333 45.3333 10.9333 45.3333 8ZM24 8C24 5.06672 26.4 2.66672 29.3333 2.66672C32.2666 2.66672 34.6666 5.06672 34.6666 8C34.6666 10.9333 32.2666 13.3333 29.3333 13.3333C26.4 13.3333 24 10.9333 24 8ZM2.66672 8C2.66672 5.06672 5.06672 2.66672 8 2.66672C10.9333 2.66672 13.3333 5.06672 13.3333 8C13.3333 10.9333 10.9333 13.3333 8 13.3333C5.06672 13.3333 2.66672 10.9333 2.66672 8ZM34.6667 72C34.6667 74.9333 32.2667 77.3333 29.3334 77.3333C26.4002 77.3333 24.0002 74.9333 24.0002 72C24.0002 69.0667 26.4002 66.6667 29.3334 66.6667C32.2667 66.6667 34.6667 69.0667 34.6667 72ZM56 72C56 74.9333 53.6 77.3333 50.6667 77.3333C47.7334 77.3333 45.3334 74.9333 45.3334 72C45.3334 69.0667 47.7334 66.6667 50.6667 66.6667C53.6 66.6667 56 69.0667 56 72ZM72 77.3333C69.0667 77.3333 66.6667 74.9333 66.6667 72C66.6667 69.0667 69.0667 66.6667 72 66.6667C74.9333 66.6667 77.3333 69.0667 77.3333 72C77.3333 74.9333 74.9333 77.3333 72 77.3333Z" fill="#CCA352"/>
</g>
<defs>
<clipPath id="clip0_225_157">
<rect width="80" height="80" fill="white"/>
</clipPath>
</defs>
</svg>
