<svg width="80" height="80" viewBox="0 0 80 80" fill="none" xmlns="http://www.w3.org/2000/svg">
<g clip-path="url(#clip0_225_166)">
<path d="M79.7666 40.3953C78.9394 37.138 76.0025 34.6666 72.4 34.6666H63.6C60.0191 34.6666 56.9405 37.1691 56.1809 40.6122C56.0648 40.8138 56 41.057 56 41.3333V42.2666V46.6666V47.9998H53.3333V43.9998C53.3333 43.1998 52.8 42.6666 52 42.6666H47.4667C46.8572 42.1441 46.1333 41.7366 45.3334 41.5159V38.6666H46.6667C47.4667 38.6666 48 38.1333 48 37.3333V32H49.3333C51.6 32 53.3333 30.2667 53.3333 28C53.3333 27.2 52.8 26.6667 52 26.6667C51.2 26.6667 50.6667 27.2 50.6667 28C50.6667 28.8 50.1334 29.3333 49.3334 29.3333H48V25.3333H49.3333C51.6 25.3333 53.3333 23.6 53.3333 21.3333C53.3333 20.5333 52.8 20 52 20C51.2 20 50.6667 20.5333 50.6667 21.3333C50.6667 22.1333 50.1334 22.6666 49.3334 22.6666H48V18.6666H49.3333C51.6 18.6666 53.3333 16.9333 53.3333 14.6666C53.3333 13.8666 52.8 13.3333 52 13.3333C51.2 13.3333 50.6667 13.8666 50.6667 14.6666C50.6667 15.4666 50.1334 15.9998 49.3334 15.9998H48V12H53.3333C54.1333 12 54.6666 11.4667 54.6666 10.6667V5.33328C54.6666 4.53328 54.1333 4 53.3333 4H50.6666V2.66672C50.6666 1.86672 50.1333 1.33344 49.3333 1.33344C48.5333 1.33344 48 1.86672 48 2.66672V4H45.3333V1.33328C45.3333 0.533281 44.8 0 44 0C43.2 0 42.6667 0.533281 42.6667 1.33328V4H38.6667V2.66672C38.6667 1.86672 38.1334 1.33344 37.3334 1.33344C36.5334 1.33344 36.0002 1.86672 36.0002 2.66672V4H34.6669C33.8669 4 33.3336 4.53328 33.3336 5.33328V10.6666C33.3336 11.4666 33.8669 11.9998 34.6669 11.9998H40V15.9998H38.6667C36.4 15.9998 34.6667 17.7331 34.6667 19.9998C34.6667 20.7998 35.2 21.3331 36 21.3331C36.8 21.3331 37.3333 20.7998 37.3333 19.9998C37.3333 19.1998 37.8666 18.6666 38.6666 18.6666H40V22.6666H38.6667C36.4 22.6666 34.6667 24.3998 34.6667 26.6666C34.6667 27.4666 35.2 27.9998 36 27.9998C36.8 27.9998 37.3333 27.4666 37.3333 26.6666C37.3333 25.8666 37.8666 25.3333 38.6666 25.3333H40V29.3333H38.6667C36.4 29.3333 34.6667 31.0666 34.6667 33.3333C34.6667 34.1333 35.2 34.6666 36 34.6666C36.8 34.6666 37.3333 34.1333 37.3333 33.3333C37.3333 32.5333 37.8666 32 38.6666 32H40V37.3333C40 38.1333 40.5333 38.6666 41.3333 38.6666H42.6666V41.5031C40.373 42.0991 38.6666 44.1931 38.6666 46.6666C38.6666 49.5998 41.0666 51.9998 43.9998 51.9998C44.3998 51.9998 44.9331 51.9998 45.3331 51.8666V54.6666H40C38.8177 54.6666 37.7222 55.0569 36.8355 55.7145L1.86672 42.6666C1.2 42.3998 0.4 42.7998 0.133437 43.4666C-0.133125 44.1333 0.266719 44.9333 0.933437 45.1998L35.1314 57.8327C35.0114 58.1002 34.9117 58.3783 34.8367 58.6666H1.33328C0.533281 58.6667 0 59.2 0 60C0 60.8 0.533281 61.3333 1.33328 61.3333H34.8366C35.4325 63.6269 37.5266 65.3333 40 65.3333H45.3333V69.3333C45.3333 70.1333 45.8666 70.6666 46.6666 70.6666H56V72.3998C56 73.6263 56.2955 74.793 56.8197 75.8289C56.8403 75.8709 56.8616 75.9125 56.883 75.9539C56.8944 75.9755 56.9055 75.997 56.9172 76.0183C57.8934 77.8675 59.6169 79.2195 61.6572 79.7508C61.6786 79.7564 61.7003 79.7614 61.7219 79.7669C61.8133 79.7898 61.905 79.8112 61.9975 79.8309C62.0359 79.8391 62.0745 79.8469 62.1133 79.8544C62.1912 79.8697 62.2695 79.8838 62.3483 79.8966C62.3944 79.9041 62.4405 79.9116 62.4867 79.9183C62.5616 79.9291 62.6367 79.9384 62.7122 79.947C62.76 79.9525 62.8077 79.9584 62.8559 79.9631C62.9369 79.9709 63.0184 79.9766 63.1 79.9817C63.142 79.9844 63.1838 79.9881 63.2259 79.9902C63.35 79.9961 63.4747 79.9997 63.6 79.9997H65.3333H72H72.4C72.5277 79.9997 72.6545 79.9959 72.7809 79.9897C72.788 79.9894 72.795 79.9886 72.8022 79.9883C75.4531 79.8514 77.7887 78.3675 79.0206 76.0786C79.6417 74.9822 80 73.7256 80 72.3997V67.8664V62.5331V57.3331V52V46.5333V42.2666V41.1998C80 40.8845 79.9161 40.6116 79.7666 40.3953ZM36 6.66672H52V9.33344H46.6667H41.3334H36V6.66672ZM42.6667 12H45.3334V16H42.6667V12ZM42.6667 18.6667H45.3334V22.6667H42.6667V18.6667ZM42.6667 25.3333H45.3334V29.3333H42.6667V25.3333ZM45.3333 32V36H42.6666V32H45.3333ZM77.3333 66.6667H72.8L74.1333 64H77.3333V66.6667ZM77.3333 56H72.8L71.4667 53.3333H77.3334L77.3333 56ZM77.3333 45.3333H74.1333L75.4666 42.6666H77.3333V45.3333ZM63.6 37.3333H72.4C74.2272 37.3333 75.8664 38.3352 76.7175 39.8666H74.6667C74.1334 39.8666 73.7334 40.2666 73.4667 40.6666L70.8 46C70.5333 46.4 70.5333 46.9333 70.8 47.3333C71.0667 47.7333 71.6 48 72 48H77.3333V50.6667H69.3333C68.9333 50.6667 68.2666 50.8 68.1333 51.2C68 51.6 67.8666 52.1333 68.1333 52.5333L70.8 57.8666C71.0667 58.3998 71.4667 58.6666 72 58.6666H77.3333V61.1998H73.3333C72.8 61.1998 72.4 61.5998 72.1333 61.9998L69.4666 67.3331C69.1998 67.7331 69.1998 68.2664 69.4666 68.6664C69.7333 69.0664 70.2666 69.3331 70.6666 69.3331H77.3333V72H69.3333C68.9333 72 68.2666 72.1333 68.1333 72.5333C68 72.9333 67.8666 73.4666 68.1333 73.8666L69.8666 77.3333H66.0666L63.8666 72.9333C63.5998 72.4 63.1998 72.1333 62.6666 72.1333H58.6666V69.3333H64C64.5333 69.3333 64.9333 69.0666 65.2 68.6666L67.8667 63.3333C68.1334 62.9333 68.1334 62.4 67.8667 62C67.6 61.6 67.0667 61.3333 66.6667 61.3333H58.6667V58.6666H65.3334C65.7334 58.6666 66.4002 58.5333 66.5334 58.1333C66.6667 57.7333 66.8002 57.2 66.5334 56.8L63.8667 51.4667C63.6 50.9334 63.2 50.6667 62.6667 50.6667H58.6667V49.3334V48H65.3334C65.8667 48 66.2667 47.7333 66.5334 47.3333L69.2 42C69.4667 41.6 69.4667 41.0667 69.2 40.6667C68.9333 40.2667 68.4 40 68 40H59.2172C60.0253 38.4325 61.6506 37.3333 63.6 37.3333ZM76.4208 75.2617C76.0128 75.8206 75.5002 76.2977 74.9097 76.6534C74.8894 76.6655 74.8691 76.6775 74.8484 76.6892C74.8097 76.7119 74.77 76.733 74.7305 76.7545C74.1495 77.0652 73.4948 77.2628 72.7916 77.3169L71.4666 74.6667H76.7827C76.6761 74.8737 76.555 75.0723 76.4208 75.2617ZM60.3369 76.1044C59.9853 75.7884 59.6739 75.4223 59.413 75.02C59.3413 74.9056 59.2747 74.7875 59.2123 74.6666H61.7333L63.0509 77.3019C62.0259 77.188 61.0834 76.7592 60.3369 76.1044ZM58.6667 53.3333H61.8667L63.2 56H58.6667V53.3333ZM58.6667 64H64.5334L63.2002 66.6667H58.6669L58.6667 64ZM58.6667 42.6667H65.8667L64.5334 45.3334H58.6667V42.6667ZM40 62.6667C38.5333 62.6667 37.3333 61.4667 37.3333 60C37.3333 59.268 37.6323 58.6023 38.1142 58.1192C38.1281 58.1058 38.1433 58.0942 38.1566 58.0802C38.6364 57.6191 39.2859 57.3333 39.9998 57.3333H45.3331V62.6666L40 62.6667ZM48 68V64V56V49.6C48 49.0667 47.7333 48.6667 47.2 48.4C46.6667 48.2667 46.1333 48.2667 45.7333 48.6667C45.4666 48.9334 44.8 49.3334 44 49.3334C42.5333 49.3334 41.3333 48.1334 41.3333 46.6667C41.3333 45.2 42.5333 44 44 44C44.8 44 45.4667 44.2667 46 44.9333C46.1333 45.2 46.5333 45.3333 46.9333 45.3333H50.6666V49.3333C50.6666 50.1333 51.1998 50.6666 51.9998 50.6666H55.9998V51.9998V57.3331V62.6664V68H48Z" fill="#CCA352"/>
</g>
<defs>
<clipPath id="clip0_225_166">
<rect width="80" height="80" fill="white"/>
</clipPath>
</defs>
</svg>
