<svg width="80" height="80" viewBox="0 0 80 80" fill="none" xmlns="http://www.w3.org/2000/svg">
<g clip-path="url(#clip0_225_175)">
<path d="M69.3421 10.6459C49.8749 10.6459 41.147 0.598871 41.0229 0.453494C40.5161 -0.153355 39.4825 -0.152021 38.9757 0.454827C38.8903 0.556191 30.257 10.6446 10.6578 10.6446C9.92161 10.6446 9.3241 11.2421 9.3241 11.9783V37.4326C9.3241 51.3474 15.5793 64.5714 26.0571 72.8045C30.2811 76.1242 34.8438 78.5263 39.6199 79.9427C39.7439 79.98 39.8719 79.9987 40 79.9987C40.128 79.9987 40.2547 79.98 40.3801 79.9427C45.1562 78.5249 49.7189 76.1242 53.9428 72.8045C64.4206 64.5701 70.6758 51.3474 70.6758 37.4326V11.9796C70.6758 11.2434 70.0783 10.6459 69.3421 10.6459ZM68.0084 37.4339C68.0084 50.5365 62.1346 62.9763 52.2943 70.7092C48.4492 73.7315 44.3146 75.9375 40 77.2725C35.6853 75.9388 31.5508 73.7315 27.7056 70.7092C17.8653 62.9776 11.9916 50.5365 11.9916 37.4339V13.2987C28.3191 12.9359 37.1524 5.96715 40 3.23566C42.8475 5.96848 51.6808 12.9359 68.0084 13.2987V37.4339Z" fill="#CCA352"/>
<path d="M39.2505 10.6512C35.2292 13.3841 28.3632 16.9051 18.4922 18.1642C17.8254 18.2495 17.3265 18.8164 17.3265 19.4872V37.4353C17.3265 48.9147 22.4387 59.786 31.0026 66.516C33.6995 68.6353 36.563 70.2971 39.5132 71.4548C39.6706 71.5162 39.8346 71.5468 40 71.5468C40.1654 71.5468 40.3308 71.5162 40.4868 71.4548C43.4344 70.2985 46.2992 68.6366 48.9987 66.516C57.5613 59.786 62.6735 48.9147 62.6735 37.4353V19.4872C62.6735 18.8164 62.1747 18.2495 61.5078 18.1642C51.6368 16.9051 44.7708 13.3841 40.7496 10.6512C40.2974 10.3431 39.7026 10.3431 39.2505 10.6512ZM60.006 20.6489V37.4339C60.006 48.1025 55.2753 58.1895 47.3502 64.4167C45.0055 66.2586 42.5354 67.723 40 68.7727C37.4646 67.7217 34.9945 66.2586 32.6511 64.4167C24.7261 58.1882 19.994 48.1011 19.994 37.4326V20.6489C29.1954 19.2872 35.8321 16.0529 40 13.3534C44.1679 16.0529 50.8046 19.2872 60.006 20.6489Z" fill="#CCA352"/>
<path d="M27.6056 39.0451C27.0841 38.5236 26.2412 38.5236 25.7197 39.0451C25.1982 39.5665 25.1982 40.4095 25.7197 40.931L36.3896 51.6008C36.6403 51.8516 36.9791 51.9916 37.3325 51.9916C37.3472 51.9916 37.3619 51.9916 37.3766 51.9916C37.746 51.9796 38.0928 51.8142 38.3355 51.5368L57.0078 30.1971C57.4933 29.6422 57.4372 28.8006 56.8824 28.3152C56.3276 27.8297 55.486 27.887 55.0005 28.4405L37.2672 48.7066L27.6056 39.0451Z" fill="#CCA352"/>
</g>
<defs>
<clipPath id="clip0_225_175">
<rect width="80" height="80" fill="white"/>
</clipPath>
</defs>
</svg>
