<svg width="22" height="18" viewBox="0 0 22 18" fill="none" xmlns="http://www.w3.org/2000/svg">
<path fill-rule="evenodd" clip-rule="evenodd" d="M20.5873 0.0704631C21.3535 -0.219848 22.1454 0.431201 21.9772 1.2129L18.5414 17.1633C18.3809 17.9111 17.4763 18.2479 16.8422 17.7955L11.6555 14.0979L9.01175 16.7197C8.54716 17.1797 7.74612 16.9924 7.54682 16.3791L5.63937 10.4983L0.526398 9.03162C-0.145226 8.8393 -0.184036 7.93191 0.46687 7.68432L20.5873 0.0704631ZM18.0651 3.60968C18.289 3.41736 18.0289 3.07805 17.7752 3.23137L8 9C7.80588 9.11687 7.71662 9.34689 7.78516 9.55926L9 14C9.0298 14.0981 9.17468 14.0842 9.18767 13.9824L9.8 11C9.81291 10.8793 9.87244 10.7687 9.96567 10.6883L18.0651 3.60968Z" fill="#BF9C56"/>
</svg>
