<svg width="20" height="20" viewBox="0 0 20 20" fill="none" xmlns="http://www.w3.org/2000/svg">
<path d="M9.51119 0.0115711C4.18615 0.262849 -0.0159917 4.66183 4.57517e-05 9.9497C0.00495934 11.5603 0.396955 13.0804 1.08854 14.4239L0.0268656 19.5357C-0.0305279 19.8123 0.220884 20.0544 0.49782 19.9893L5.54756 18.8026C6.84495 19.4438 8.30217 19.8139 9.84436 19.8373C15.287 19.9198 19.8252 15.6332 19.995 10.2364C20.1767 4.45144 15.3634 -0.264956 9.51119 0.0115711ZM15.5367 15.4111C14.0579 16.8779 12.0915 17.6858 10 17.6858C8.77545 17.6858 7.60287 17.4132 6.51506 16.8758L5.81201 16.5283L2.71576 17.2558L3.36743 14.1178L3.02109 13.4447C2.4563 12.3477 2.16994 11.1615 2.16994 9.91897C2.16994 7.8443 2.98444 5.89399 4.46322 4.427C5.92884 2.97309 7.92724 2.15224 10.0002 2.15224C12.0914 2.15224 14.0578 2.96016 15.5366 4.427C17.0154 5.89385 17.8299 7.84437 17.8299 9.91876C17.83 11.975 17.0024 13.9572 15.5367 15.4111Z" fill="#BF9C56"/>
<path d="M14.8533 12.0698L12.9162 11.5181C12.6617 11.4458 12.3874 11.5174 12.2018 11.705L11.7281 12.1835C11.5284 12.3855 11.2254 12.4503 10.961 12.3443C10.0447 11.9764 8.11715 10.2764 7.62518 9.42626C7.48296 9.18094 7.5065 8.87443 7.68093 8.65036L8.09436 8.11971C8.25637 7.9119 8.29049 7.63252 8.18342 7.39221L7.36851 5.56395C7.17333 5.12611 6.60922 4.99858 6.24064 5.3078C5.70007 5.76141 5.05865 6.45046 4.98078 7.21404C4.84327 8.56026 5.42539 10.2571 7.62606 12.2948C10.1686 14.649 12.2048 14.9598 13.5308 14.6413C14.2828 14.4608 14.8837 13.7366 15.2627 13.1435C15.5215 12.7389 15.317 12.202 14.8533 12.0698Z" fill="#BF9C56"/>
</svg>
